<svg xmlns="http://www.w3.org/2000/svg" viewBox="0 0 2928 2636" width="2928" height="2636">
<g fill="#000000">
<path d="M0 0 C0.814 0.035 1.628 0.07 2.467 0.106 C16.97 0.754 31.302 2.514 45.463 5.752 C47.722 6.25 49.974 6.61 52.27 6.898 C53.081 7.007 53.893 7.115 54.729 7.227 C55.561 7.338 56.393 7.448 57.25 7.562 C62.915 8.348 68.143 9.224 73.5 11.312 C79.442 13.547 85.218 13.735 91.502 13.86 C99.651 14.05 106.76 15.773 114.375 18.688 C118.462 20.196 122.327 21.476 126.625 22.188 C130.293 22.809 133.073 23.918 136.375 25.625 C142.244 28.492 148.11 29.295 154.537 30.023 C159.471 30.639 163.112 31.843 167.47 34.218 C170.709 35.814 174.111 36.5 177.625 37.25 C182.428 38.285 186.218 39.641 190.438 42.188 C193.27 42.742 193.27 42.742 196.25 43.062 C201.237 43.79 204.143 45.021 208.188 47.895 C212.153 50.173 216.574 51.054 220.969 52.219 C224.851 53.303 228.489 54.693 232.199 56.254 C234.321 57.139 236.458 57.921 238.625 58.688 C241.246 59.647 243.506 60.778 245.875 62.25 C248.498 63.828 250.743 64.566 253.75 65.125 C258.221 65.986 261.778 67.726 265.789 69.836 C271.791 72.899 278.119 75.29 284.395 77.73 C285.066 77.994 285.737 78.257 286.429 78.528 C287.738 79.039 289.049 79.545 290.362 80.045 C293.817 81.394 296.511 82.944 299.438 85.188 C301.643 86.004 303.855 86.62 306.121 87.246 C308.438 88.188 308.438 88.188 310.828 90.23 C313.957 92.577 315.889 92.757 319.75 93.062 C325.378 93.765 328.312 95.047 332.527 98.734 C335.271 100.822 338.153 101.59 341.457 102.449 C343.438 103.188 343.438 103.188 344.891 104.652 C346.886 106.633 348.714 107.179 351.375 108.062 C355.524 109.488 359.54 111.061 363.562 112.812 C367.157 114.349 370.467 115.503 374.312 116.188 C378.032 116.893 379.989 118.246 382.773 120.891 C385.57 123.07 388.831 124.066 392.133 125.281 C394.438 126.187 394.438 126.187 396.875 127.812 C400.361 129.683 403.817 129.988 407.719 130.465 C411.058 131.352 412.799 132.991 415.438 135.188 C418.059 136.426 418.059 136.426 420.875 137.5 C425.525 139.354 429.978 141.411 434.438 143.688 C439.809 146.423 445.233 148.805 450.816 151.066 C454.217 152.521 457.267 154.285 460.438 156.188 C461.448 156.662 462.459 157.136 463.5 157.625 C466.438 159.188 466.438 159.188 469.125 161.625 C471.737 163.913 474.14 164.88 477.438 165.938 C482.194 167.521 486.124 169.765 490.25 172.562 C496.057 176.491 501.865 179.323 508.379 181.898 C511.438 183.188 511.438 183.188 514.133 184.809 C516.885 186.455 519.276 186.82 522.438 187.188 C520.176 182.617 517.128 180.257 512.938 177.562 C509.504 175.309 506.332 173.116 503.438 170.188 C502.026 169.33 500.586 168.52 499.125 167.75 C495.413 165.747 491.937 163.546 488.438 161.188 C484.192 158.672 479.895 156.367 475.469 154.188 C473.471 153.204 471.486 152.196 469.5 151.188 C466.666 149.759 463.799 148.484 460.875 147.25 C457.272 145.677 454.318 143.782 451.195 141.414 C448.718 139.685 446.071 138.44 443.332 137.18 C441.438 136.188 441.438 136.188 439.523 134.641 C437.058 132.923 435.199 132.587 432.25 132.062 C425.766 130.574 420.492 127.773 414.72 124.59 C409.768 121.863 404.798 119.586 399.539 117.5 C394.973 115.568 390.583 113.312 386.166 111.065 C382.628 109.269 379.091 107.552 375.438 106 C372.62 104.798 370.214 103.415 367.688 101.688 C363.287 98.809 358.575 97.594 353.555 96.156 C350.211 95.117 347.284 93.794 344.223 92.117 C342.356 91.145 340.479 90.461 338.5 89.75 C335.438 88.188 335.438 88.188 334.312 85.688 C334.438 83.187 334.438 83.187 335.438 81.656 C338.482 79.42 341.929 78.929 345.562 78.188 C350.074 77.237 354.425 76.234 358.762 74.652 C364.119 72.805 369.512 72.317 375.125 71.75 C382.908 70.876 390.064 69.648 397.531 67.227 C404.054 65.311 410.929 64.604 417.646 63.67 C422.02 63.034 425.803 62.465 429.871 60.688 C436.251 58.004 443.211 57.67 450.039 56.814 C455.863 56.031 461.304 55.025 466.895 53.191 C473.856 50.929 480.744 49.911 488 49.062 C488.671 48.981 489.342 48.899 490.034 48.815 C505.177 46.978 520.371 46.164 535.604 45.49 C539.694 45.301 543.753 44.988 547.828 44.586 C553.301 44.102 558.488 44.388 563.938 45 C564.849 45.094 565.76 45.188 566.699 45.285 C572.383 45.893 577.992 46.728 583.617 47.746 C589.843 48.721 596.43 49.471 602.729 49.025 C611.078 48.566 618.268 50.96 626.037 53.667 C628.257 54.44 630.486 55.185 632.717 55.926 C634.152 56.412 635.586 56.901 637.02 57.391 C637.348 57.501 637.348 57.501 639.008 58.057 C643.292 59.565 646.717 61.613 650.438 64.188 C652.492 65.129 652.492 65.129 654.312 65.75 C654.988 65.99 655.663 66.23 656.359 66.477 C657.045 66.711 657.731 66.946 658.438 67.188 C675.004 72.855 686.917 85.705 697.438 99.188 C697.755 99.571 697.755 99.571 699.359 101.512 C702.849 105.784 705.334 109.771 707.418 114.871 C709.637 119.913 712.641 124.658 715.827 129.144 C719.694 134.665 722.244 140.102 724.5 146.438 C725.182 148.292 725.864 150.146 726.547 152 C726.87 152.889 727.193 153.779 727.525 154.695 C728.721 157.962 729.982 161.199 731.25 164.438 C732.603 167.934 733.864 171.428 735 175 C735.919 177.862 737.019 180.413 738.438 183.062 C740.534 187.057 741.558 191.118 742.656 195.477 C743.382 197.995 744.286 200.154 745.438 202.5 C747.717 207.335 748.561 212.283 749.59 217.504 C750.726 222.441 752.468 227.061 754.246 231.797 C755.384 235.035 756.232 238.22 757 241.562 C757.823 245.1 758.746 248.071 760.5 251.25 C762.647 255.172 763.198 258.967 763.883 263.352 C764.439 266.193 765.268 268.679 766.312 271.375 C768.08 275.944 769.314 280.494 770.438 285.25 C771.698 290.558 773.267 295.483 775.434 300.488 C776.996 304.688 777.97 309.026 778.955 313.393 C779.725 316.713 780.653 319.687 782.004 322.824 C783.348 325.977 783.923 328.436 784.312 331.812 C784.986 336.366 786.122 340.246 787.875 344.5 C790.347 350.525 791.602 356.291 792.664 362.68 C793.438 366.187 793.438 366.187 794.938 369.531 C796.757 373.967 797.26 378.082 797.812 382.812 C798.76 390.029 800.353 396.081 803.25 402.789 C805 407.797 805.566 412.873 806.273 418.112 C806.985 423.075 808.079 427.435 809.938 432.125 C812.507 438.668 813.436 445.014 814.344 451.934 C815.127 457.687 816.456 462.837 818.469 468.297 C820.19 473.432 821.035 478.751 822.027 484.066 C822.787 487.995 823.655 491.901 824.5 495.812 C825.65 501.156 826.663 506.452 827.375 511.875 C828.172 517.493 829.769 522.723 831.546 528.089 C833.438 533.894 834.629 539.664 835.664 545.688 C836.438 549.188 836.438 549.188 837.934 552.887 C840.335 559.017 840.552 565.579 841.166 572.08 C841.845 578.384 843.221 583.693 845.535 589.587 C846.892 593.497 847.23 597.329 847.5 601.438 C847.913 607.372 848.851 611.804 851.438 617.188 C854.213 624.043 855.584 629.699 855.438 637.188 C853.312 638.375 853.312 638.375 850.438 639.188 C847.158 637.932 844.594 636.3 841.75 634.25 C837.993 631.911 834.28 630.568 830.113 629.125 C826.804 627.965 823.644 626.606 820.438 625.188 C816.798 623.599 813.161 622.065 809.438 620.688 C799.49 616.986 799.49 616.986 796.543 614.75 C794.286 613.075 792.031 611.904 789.5 610.688 C786.829 609.391 784.357 608.135 781.875 606.5 C779.513 605.228 777.854 604.807 775.25 604.312 C770.723 603.415 767.116 601.636 763.059 599.484 C759.474 597.711 755.77 596.445 751.98 595.18 C749.438 594.187 749.438 594.187 746.914 592.66 C744.456 591.199 742.379 590.466 739.625 589.75 C736.407 588.841 733.563 587.843 730.625 586.25 C727.222 584.439 723.824 583.332 720.125 582.25 C714.827 580.694 709.985 578.72 705.008 576.348 C701.855 574.924 698.644 573.902 695.348 572.867 C693.437 572.187 693.437 572.187 691 570.688 C687.765 568.794 684.491 568.008 680.895 567.008 C678.438 566.188 678.438 566.188 675.25 564.125 C671.768 561.94 668.493 561.762 664.438 561.375 C658.066 560.74 652.922 558.888 647.218 556.006 C642.44 553.602 637.618 551.68 632.562 549.938 C631.841 549.689 631.12 549.44 630.376 549.183 C626.678 547.922 622.967 546.706 619.25 545.5 C616.832 544.715 614.945 543.919 612.688 542.688 C609.411 541.175 606.522 540.493 603 539.75 C596.082 538.26 596.082 538.26 592.938 536.188 C588.934 533.552 584.468 532.961 579.816 532.094 C577.017 531.343 575.107 530.564 572.602 529.223 C568.281 526.959 564.018 526.016 559.25 525.125 C553.931 524.119 550.1 523.012 545.438 520.188 C542.918 519.636 540.481 519.186 537.938 518.812 C531.406 517.738 525.728 515.867 519.602 513.312 C515.243 511.763 510.912 511.287 506.34 510.711 C503.642 510.224 502.011 509.627 499.688 508.25 C495.652 505.918 491.541 505.391 487 504.688 C478.017 503.295 478.017 503.295 473.938 501.188 C469.848 499.087 465.686 498.442 461.188 497.75 C454.59 496.73 448.934 494.97 442.754 492.379 C438.313 490.784 433.87 490.05 429.229 489.279 C425.346 488.612 421.838 487.726 418.188 486.25 C412.153 483.836 405.895 482.782 399.517 481.67 C395.81 480.996 392.805 480.375 389.426 478.652 C385.347 476.653 381.413 476.331 376.938 475.812 C370.668 475 365.116 473.934 359.25 471.562 C352.658 468.949 346.938 468.628 339.934 468.621 C336.198 468.445 333.032 467.494 329.488 466.316 C321.504 463.721 313.485 462.727 305.188 461.688 C295.376 460.447 285.842 458.914 276.238 456.53 C271.199 455.302 266.484 454.647 261.312 454.625 C252.141 454.335 243.468 452.796 234.597 450.43 C226.345 448.326 218.677 447.835 210.188 447.812 C197.968 447.611 186.623 446.079 174.73 443.344 C166.833 441.55 159.196 441.104 151.111 440.948 C133.781 440.587 116.536 438.9 99.594 435.121 C93.509 433.874 87.372 433.614 81.18 433.296 C78.269 433.147 75.358 432.98 72.448 432.815 C70.955 432.73 69.463 432.646 67.97 432.562 C51.98 431.664 35.986 430.583 20.06 428.885 C1.393 426.961 -17.38 426.876 -36.125 426.625 C-36.864 426.615 -37.603 426.605 -38.365 426.594 C-67.132 426.198 -95.9 426.051 -124.669 426.006 C-127.844 426 -131.018 425.99 -134.193 425.979 C-187.281 425.807 -187.281 425.807 -208.5 429.688 C-226.439 432.926 -244.732 433.552 -262.923 433.026 C-270.647 432.882 -277.153 434.118 -284.562 436.188 C-294.348 438.629 -303.812 439.766 -313.875 440.25 C-323.709 440.745 -332.656 441.401 -341.941 444.75 C-347.068 446.521 -352.115 446.859 -357.5 447.188 C-366.03 447.711 -373.982 448.757 -381.625 452.812 C-386.424 455.059 -390.881 455.893 -396.07 454.527 C-399.647 453.107 -401.989 452.025 -404.188 448.812 C-405.005 443.09 -403.152 439.237 -400.535 434.332 C-399.226 431.445 -398.714 428.584 -398.25 425.461 C-397.562 423.188 -397.562 423.188 -395.625 420.375 C-393.339 416.842 -392.506 413.898 -391.562 409.812 C-390.371 404.91 -388.962 400.612 -386.496 396.207 C-385.289 393.596 -384.708 390.988 -384.062 388.188 C-383.238 384.614 -382.396 381.524 -380.625 378.312 C-378.103 373.7 -376.942 368.767 -375.566 363.719 C-374.404 359.629 -372.991 355.681 -371.496 351.703 C-370.626 349.359 -369.832 347.004 -369.062 344.625 C-368.053 341.532 -366.893 338.558 -365.625 335.562 C-363.674 330.778 -362.347 325.912 -361.056 320.914 C-358.473 310.91 -355.239 301.12 -352 291.312 C-351.707 290.42 -351.414 289.528 -351.112 288.609 C-349.473 283.684 -347.669 278.931 -345.562 274.188 C-343.848 269.957 -342.394 265.697 -341.125 261.312 C-340.118 257.86 -338.946 254.569 -337.562 251.25 C-336.102 247.725 -335.001 244.26 -334.062 240.562 C-333.211 237.256 -332.283 234.418 -330.625 231.438 C-327.961 226.536 -326.883 221.157 -325.59 215.773 C-324.562 212.188 -324.562 212.188 -323.062 209.211 C-321.328 205.714 -320.468 202.219 -319.625 198.438 C-318.12 192.074 -316.185 186.187 -313.562 180.188 C-312.211 176.862 -310.887 173.524 -309.562 170.188 C-309.283 169.498 -309.003 168.808 -308.715 168.098 C-307.082 163.955 -306.008 159.957 -305.285 155.559 C-304.445 152.803 -303.072 150.531 -301.608 148.063 C-299.923 145.041 -298.726 141.854 -297.5 138.625 C-295.734 134.02 -293.789 129.591 -291.562 125.188 C-290.79 123.211 -290.096 121.222 -289.406 119.215 C-288.562 117.188 -288.562 117.188 -287.078 114.758 C-285.584 112.225 -284.706 109.918 -283.812 107.125 C-279.841 95.961 -273.197 87.109 -265.562 78.188 C-257.074 67.995 -257.074 67.995 -254.625 64.125 C-247.114 53.428 -236.271 46.326 -225.562 39.188 C-224.753 38.569 -223.943 37.95 -223.109 37.312 C-217.842 33.311 -213.04 30.197 -206.754 28.074 C-204.562 27.188 -204.562 27.188 -202.738 25.703 C-199.284 23.297 -195.276 22.714 -191.227 21.814 C-187.932 21.021 -185.498 20.144 -182.672 18.246 C-178.692 15.611 -174.752 14.473 -170.188 13.188 C-169.306 12.932 -168.424 12.676 -167.515 12.413 C-154.647 8.723 -141.708 5.717 -128.562 3.188 C-128.202 3.107 -128.202 3.107 -126.379 2.697 C-86.383 -6.056 -40.569 -1.854 0 0 Z M524.438 188.188 C524.767 189.507 525.097 190.827 525.438 192.188 C527.088 192.188 528.737 192.188 530.438 192.188 C530.108 191.197 529.778 190.207 529.438 189.188 C527.787 188.857 526.138 188.528 524.438 188.188 Z " transform="translate(1318.5625,354.8125)"/>
<path d="M0 0 C5.452 0.004 10.903 0.001 16.355 -0.004 C22.421 -0.009 28.487 -0.008 34.553 -0.005 C37.063 -0.005 39.573 -0.005 42.083 -0.008 C55.711 -0.018 69.295 0.193 82.911 0.773 C91.06 1.115 99.186 1.254 107.341 1.204 C109.549 1.19 111.757 1.184 113.965 1.18 C118.641 1.168 123.317 1.149 127.993 1.129 C153.778 1.016 178.79 1.588 204.378 5.047 C215.202 6.499 225.731 7.301 236.655 7.164 C246.086 7.06 255.442 7.588 264.847 8.246 C267.717 8.444 270.588 8.621 273.46 8.798 C290.1 9.892 290.1 9.892 297.653 12.434 C303.213 14.084 308.981 14.312 314.743 14.558 C316.243 14.63 317.743 14.702 319.242 14.775 C320.018 14.812 320.794 14.849 321.594 14.887 C340.37 15.8 358.732 17.502 377.138 21.445 C382.73 22.437 388.345 22.875 394.001 23.359 C403.407 24.192 412.863 25.448 422.066 27.617 C431.724 29.82 441.665 30.09 451.522 30.73 C464.081 31.558 476.872 32.46 489.091 35.682 C491.851 36.33 494.603 36.507 497.427 36.742 C498.705 36.853 499.983 36.965 501.3 37.08 C501.974 37.139 502.648 37.197 503.343 37.258 C514.245 38.216 524.953 39.454 535.675 41.718 C541.604 42.946 547.461 43.633 553.493 44.129 C560.132 44.688 565.831 45.858 572.145 48.058 C578.697 49.881 585.424 50.661 592.146 51.626 C598.497 52.551 604.702 53.651 610.931 55.191 C618.494 57.043 626.064 57.86 633.806 58.629 C641.785 59.427 649.127 60.349 656.704 63.093 C661.232 64.518 665.825 65.297 670.493 66.129 C677.513 67.384 684.129 69.007 690.903 71.265 C694.375 72.235 697.725 72.667 701.306 73.066 C707.573 73.788 713.136 75.261 719.084 77.242 C723.336 78.646 727.531 79.748 731.931 80.629 C737.992 81.844 743.825 83.499 749.734 85.288 C755.115 86.905 760.52 88.237 766.009 89.445 C768.909 90.109 771.756 90.879 774.618 91.691 C778.253 92.715 781.827 93.47 785.556 94.066 C789.129 94.672 792.132 95.516 795.431 97.004 C800.433 99.169 805.475 100.089 810.806 101.066 C817.879 102.368 824.187 104.166 830.837 106.968 C835.658 108.74 840.601 109.536 845.638 110.445 C848.321 110.992 850.507 111.607 852.993 112.691 C856.642 114.231 860.191 114.572 864.118 115.004 C870.709 115.78 876.279 117.512 882.442 119.906 C886.218 121.206 889.875 121.943 893.806 122.629 C898.268 123.431 901.679 124.236 905.493 126.691 C910.397 129.786 915.346 129.942 921.02 130.539 C926.415 131.219 931.316 133.078 936.415 134.902 C939.739 136.041 943.008 136.909 946.431 137.691 C949.894 138.506 952.817 139.41 955.931 141.129 C960.159 143.416 964.471 144.281 969.149 145.281 C973.731 146.291 978.266 147.443 982.806 148.629 C983.594 148.83 984.382 149.032 985.194 149.24 C991.384 150.862 997.322 152.75 1003.02 155.691 C1007.622 157.916 1012.485 158.87 1017.435 160.066 C1020.993 161.129 1020.993 161.129 1023.349 162.581 C1026.168 164.231 1028.713 165.069 1031.852 165.949 C1038.807 168.009 1045.515 170.552 1052.253 173.217 C1055.651 174.56 1059.057 175.888 1062.462 177.215 C1063.123 177.472 1063.783 177.73 1064.464 177.995 C1071.912 180.889 1079.436 183.535 1086.993 186.129 C1089.058 186.852 1091.121 187.58 1093.181 188.316 C1093.979 188.598 1094.776 188.881 1095.599 189.172 C1097.993 190.129 1097.993 190.129 1100.88 191.609 C1104.087 193.174 1107.207 194.214 1110.618 195.254 C1119.653 198.126 1128.137 202.143 1136.734 206.102 C1140.651 207.882 1144.621 209.519 1148.602 211.148 C1150.599 211.967 1152.579 212.824 1154.556 213.691 C1157.253 214.819 1159.929 215.837 1162.681 216.816 C1167.979 218.72 1173.206 220.782 1178.431 222.879 C1178.857 223.05 1178.857 223.05 1181.015 223.915 C1185.45 225.697 1189.881 227.488 1194.31 229.285 C1202.3 232.517 1210.251 235.642 1218.466 238.269 C1221.682 239.363 1224.73 240.717 1227.81 242.144 C1230.031 243.146 1232.277 244.014 1234.556 244.879 C1239.915 246.984 1245.002 249.575 1250.109 252.223 C1255.832 255.16 1261.599 257.693 1267.931 259.004 C1271.984 259.948 1275.199 261.805 1278.767 263.902 C1281.463 265.387 1284.205 266.371 1287.102 267.386 C1289.596 268.365 1291.822 269.741 1294.118 271.109 C1296.157 272.218 1298.202 273.048 1300.368 273.879 C1305.163 275.721 1309.746 277.898 1314.368 280.129 C1320.287 282.978 1326.135 285.263 1332.423 287.199 C1335.651 288.367 1338.237 290.048 1341.06 291.972 C1343.799 293.61 1346.651 294.43 1349.72 295.257 C1352.142 296.186 1354.028 297.505 1356.15 298.976 C1360.929 301.965 1366.262 304.082 1371.382 306.418 C1376.104 308.612 1379.963 310.802 1383.993 314.129 C1386.607 315.573 1389.302 316.836 1391.993 318.129 C1406.298 325.458 1420.298 333.227 1433.739 342.05 C1436.008 343.5 1438.253 344.863 1440.595 346.179 C1443.509 347.851 1446.209 349.605 1448.931 351.566 C1452.026 353.766 1455.135 355.886 1458.368 357.879 C1463.888 361.287 1463.888 361.287 1465.993 363.129 C1465.993 363.789 1465.993 364.449 1465.993 365.129 C1466.706 365.359 1467.419 365.59 1468.153 365.828 C1471.553 367.385 1473.717 369.374 1476.431 371.941 C1482.545 377.653 1482.545 377.653 1485.368 379.941 C1493.686 386.872 1501.091 396.667 1503.806 407.316 C1504.274 416.83 1501.838 424.599 1495.993 432.129 C1485.251 443.679 1469.253 453.136 1454.056 457.425 C1451.993 458.129 1451.993 458.129 1449.259 459.621 C1444.807 461.676 1440.453 462.164 1435.622 462.769 C1431.307 463.414 1428.051 464.518 1424.22 466.632 C1418.481 469.67 1413.017 470.175 1406.618 470.691 C1398.958 471.442 1392.178 472.373 1384.984 475.223 C1381.525 476.27 1378.419 476.519 1374.81 476.707 C1374.115 476.744 1373.421 476.781 1372.706 476.819 C1370.469 476.934 1368.231 477.034 1365.993 477.129 C1365.627 477.144 1365.627 477.144 1363.774 477.223 C1358.348 477.444 1352.921 477.611 1347.493 477.754 C1347.077 477.765 1347.077 477.765 1344.968 477.821 C1332.904 478.126 1320.869 478.165 1308.806 477.816 C1308.125 477.799 1307.444 477.782 1306.743 477.764 C1304.833 477.713 1302.923 477.646 1301.013 477.578 C1299.941 477.54 1298.87 477.502 1297.766 477.463 C1294.997 477.129 1293.285 476.704 1290.993 475.129 C1290.663 474.139 1290.333 473.149 1289.993 472.129 C1293.938 467.607 1297.751 465.586 1303.306 463.441 C1303.666 463.294 1303.666 463.294 1305.491 462.548 C1309.115 461.102 1312.651 459.925 1316.458 459.062 C1317.625 458.754 1318.791 458.446 1319.993 458.129 C1321.243 455.879 1321.243 455.879 1321.993 453.129 C1325.207 446.7 1329.764 444.979 1335.993 442.129 C1337.649 441.273 1339.296 440.399 1340.931 439.504 C1341.641 439.119 1342.351 438.735 1343.083 438.34 C1344.993 437.129 1344.993 437.129 1346.372 435.617 C1348.645 433.53 1351.085 432.928 1353.993 431.941 C1359.536 429.712 1359.536 429.712 1361.446 427.273 C1363.152 422.95 1363.28 418.724 1362.993 414.129 C1362.462 413.886 1361.931 413.644 1361.384 413.394 C1355.413 410.561 1355.413 410.561 1352.993 408.066 C1350.508 405.658 1348.164 405.003 1344.931 403.91 C1342.993 403.129 1342.993 403.129 1340.556 401.129 C1337.537 398.773 1334.801 398.005 1331.177 396.91 C1328.993 396.129 1328.993 396.129 1326.118 394.129 C1322.405 391.752 1318.966 390.961 1314.72 389.914 C1312.221 389.194 1310.252 388.326 1307.993 387.066 C1304.866 385.369 1302.136 384.713 1298.618 384.191 C1293.609 383.418 1289.913 381.729 1285.485 379.336 C1283.008 378.136 1280.794 377.491 1278.118 376.879 C1270.579 375.021 1263.683 371.533 1256.665 368.285 C1245.176 362.968 1245.176 362.968 1240.556 362.191 C1237.489 361.568 1235.046 360.758 1232.306 359.254 C1228.637 357.265 1224.957 356.21 1220.931 355.129 C1213.54 353.126 1213.54 353.126 1210.243 351.066 C1206.69 348.948 1203.415 348.005 1199.458 346.91 C1197.151 346.178 1195.233 345.29 1193.118 344.129 C1188.918 341.893 1184.601 340.973 1179.989 339.902 C1176.425 338.982 1173.165 337.671 1169.782 336.238 C1165.617 334.581 1161.355 333.231 1157.082 331.879 C1154.022 330.892 1151.693 329.928 1148.993 328.129 C1146.985 327.616 1144.961 327.165 1142.931 326.754 C1137.876 325.642 1133.331 324.188 1128.583 322.164 C1125.615 320.977 1122.617 320.048 1119.556 319.129 C1111.221 316.616 1103.245 313.703 1095.306 310.129 C1089.468 307.573 1083.745 305.942 1077.542 304.531 C1073.245 303.529 1069.783 302.17 1065.981 299.996 C1062.501 298.478 1058.771 298.219 1055.02 297.816 C1051.84 297.094 1049.613 295.753 1046.848 294.073 C1043.674 292.456 1040.367 292.141 1036.868 291.691 C1030.264 290.691 1024.574 288.983 1018.392 286.39 C1013.688 284.644 1008.896 283.582 1003.991 282.56 C999.365 281.57 995.354 280.006 990.993 278.129 C988.714 277.591 986.421 277.111 984.118 276.691 C980.065 275.876 976.485 275.079 972.806 273.191 C967.42 270.508 961.52 269.665 955.643 268.611 C951.189 267.773 948.601 266.922 944.993 264.129 C942.426 263.517 939.966 263.029 937.368 262.629 C931.975 261.709 926.816 260.625 921.602 258.937 C918.324 257.921 915.008 257.099 911.681 256.254 C906.742 254.985 902.031 253.43 897.306 251.504 C892.093 249.397 887.227 248.414 881.677 247.656 C879.09 247.148 877.482 246.466 875.243 245.129 C870.192 242.264 864.448 242.156 858.786 241.554 C848.883 240.443 848.883 240.443 844.915 237.683 C840.756 235.47 836.548 234.949 831.931 234.191 C825.956 233.147 820.256 232.073 814.556 229.941 C809.126 227.935 804.052 227.729 798.306 227.465 C794.263 227.054 791.16 225.836 787.485 224.179 C780.518 221.242 773.076 219.833 765.54 219.632 C763.03 219.136 761.516 218.401 759.29 217.191 C754.787 214.834 750.497 214.165 745.493 213.566 C738.282 212.669 732.171 211.001 725.544 208.031 C721.832 206.718 718.068 206.248 714.181 205.691 C712.468 205.431 710.756 205.169 709.044 204.906 C708.191 204.776 707.339 204.645 706.46 204.511 C678.318 200.15 678.318 200.15 666.618 193.941 C661.427 191.396 655.73 191.388 650.057 190.915 C645.61 190.511 641.823 189.97 637.681 188.191 C632.315 185.914 626.983 185.364 621.243 184.691 C613.066 183.723 605.782 182.127 598.087 179.215 C593.025 177.438 588.221 177.038 582.877 176.838 C575.75 176.564 569.63 175.897 562.993 173.129 C557.738 171.036 552.819 170.691 547.243 170.316 C540.275 169.76 533.853 168.775 527.181 166.691 C519.064 164.158 511.037 163.141 502.6 162.225 C497.142 161.606 492.114 160.777 486.868 159.066 C481.073 157.202 475.588 156.624 469.556 156.191 C461.874 155.639 454.66 154.515 447.181 152.691 C437.662 150.4 428.226 149.381 418.493 148.629 C407.882 147.802 397.65 146.529 387.277 144.039 C379.138 142.087 370.959 140.757 362.677 139.56 C357.867 138.843 353.266 137.979 348.599 136.601 C341.233 134.493 333.715 134.042 326.108 133.4 C319.197 132.734 313.104 131.442 306.587 129.022 C300.312 126.861 293.901 127.102 287.345 127.148 C275.91 127.081 264.913 126.81 253.993 123.129 C248.783 121.389 244.163 120.906 238.72 121.054 C230.023 121.169 221.389 120.905 212.706 120.439 C210.362 120.316 208.018 120.209 205.673 120.103 C194.732 119.558 184.346 117.994 173.647 115.604 C167.803 114.348 162.189 113.771 156.22 113.601 C154.34 113.532 152.461 113.463 150.581 113.394 C149.608 113.361 148.634 113.328 147.631 113.294 C131.575 112.744 115.563 111.948 99.556 110.566 C99.18 110.534 99.18 110.534 97.281 110.372 C85.571 109.362 85.571 109.362 80.349 108.59 C77.612 108.214 75.108 108.022 72.356 108.066 C71.944 108.07 71.944 108.07 69.854 108.09 C68.175 108.115 66.495 108.141 64.815 108.168 C60.539 108.207 56.363 108.098 52.108 107.658 C42.049 106.793 31.946 106.774 21.856 106.593 C19.573 106.55 17.289 106.507 15.006 106.463 C10.212 106.372 5.418 106.285 0.625 106.199 C-5.388 106.091 -11.401 105.976 -17.413 105.859 C-43.806 105.349 -70.186 104.985 -96.583 105.102 C-101.388 105.123 -106.192 105.139 -110.997 105.152 C-128.703 105.202 -146.409 105.271 -164.115 105.364 C-172.686 105.409 -181.257 105.449 -189.828 105.475 C-197.444 105.498 -205.06 105.532 -212.676 105.577 C-216.658 105.601 -220.64 105.62 -224.621 105.626 C-240.837 105.656 -256.915 106.057 -273.071 107.536 C-273.76 107.598 -274.448 107.66 -275.157 107.724 C-282.139 108.371 -289.01 109.159 -295.858 110.688 C-302.368 112.023 -309.018 112.204 -315.641 112.368 C-327.766 112.698 -339.17 114.613 -351.007 117.129 C-361.195 119.248 -371.004 120.54 -381.439 120.575 C-386.179 120.67 -389.912 121.323 -394.335 123.074 C-400.457 125.488 -406.364 126.031 -412.882 126.566 C-421.161 127.365 -428.003 128.488 -435.597 132.007 C-441.275 133.874 -447.196 134.014 -453.145 134.232 C-458.948 134.544 -462.467 135.599 -467.218 138.952 C-469.729 140.603 -472.201 141.132 -475.132 141.691 C-479.939 142.761 -482.98 144.239 -487.007 147.129 C-488.582 147.714 -490.166 148.274 -491.757 148.816 C-502.897 153.138 -509.815 162.744 -515.007 173.129 C-515.759 184.452 -509.344 193.399 -502.253 201.691 C-499.903 204.241 -497.467 206.684 -495.007 209.129 C-494.393 209.8 -493.78 210.472 -493.148 211.164 C-486.056 218.768 -477.596 224.37 -469.007 230.129 C-468.05 230.786 -467.094 231.443 -466.108 232.121 C-461.919 234.846 -458.271 236.437 -453.382 237.504 C-441.004 240.24 -428.162 247.337 -419.007 256.129 C-419.007 257.119 -419.007 258.109 -419.007 259.129 C-425.89 262.5 -430.749 262.802 -438.21 260.757 C-443.112 259.507 -448.005 258.592 -453.011 257.882 C-453.707 257.783 -454.403 257.684 -455.12 257.582 C-457.991 257.18 -460.863 256.785 -463.737 256.402 C-471.704 255.328 -479.13 254.028 -486.645 251.023 C-491.134 249.323 -495.8 248.792 -500.526 248.035 C-504.374 247.033 -506.735 245.34 -510.007 243.129 C-513.023 242.328 -513.023 242.328 -516.257 241.816 C-528.319 239.48 -539.496 234.368 -550.573 229.175 C-553.006 228.129 -555.399 227.352 -557.944 226.629 C-580.01 220.275 -599.542 205.657 -617.007 191.129 C-617.691 190.568 -618.376 190.007 -619.081 189.429 C-631.29 179.139 -641.816 166.004 -643.827 149.648 C-643.857 149.232 -643.857 149.232 -644.007 147.129 C-644.087 146.266 -644.167 145.404 -644.249 144.515 C-644.676 136.246 -641.853 131.113 -636.569 124.941 C-635.393 123.66 -634.206 122.388 -633.007 121.129 C-632.223 120.304 -631.439 119.479 -630.632 118.629 C-630.199 118.216 -630.199 118.216 -628.007 116.129 C-627.384 115.534 -626.762 114.94 -626.12 114.328 C-621.033 109.624 -615.665 105.763 -609.851 102.004 C-607.453 100.423 -605.199 98.778 -602.944 97.004 C-596.087 91.779 -588.408 88.114 -580.386 85.05 C-578.158 84.187 -575.993 83.245 -573.819 82.254 C-565.059 78.317 -556.127 74.734 -546.968 71.84 C-544.921 71.097 -543.107 70.167 -541.194 69.129 C-537.903 67.395 -534.758 66.511 -531.132 65.691 C-527.065 64.767 -523.814 63.626 -520.194 61.566 C-514.866 58.684 -509.686 58.347 -503.73 57.715 C-499.111 56.988 -495.4 55.365 -491.179 53.425 C-486.242 51.407 -481.154 50.309 -475.964 49.121 C-473.094 48.451 -470.38 47.569 -467.608 46.57 C-462.94 44.972 -458.468 44.53 -453.569 44.191 C-447.358 43.656 -442.316 42.809 -436.636 40.132 C-432.432 38.527 -428.033 37.982 -423.609 37.276 C-417.403 36.262 -411.48 34.716 -405.417 33.039 C-398.162 31.102 -390.896 30.106 -383.444 29.254 C-377.741 28.599 -372.269 27.549 -366.694 26.191 C-358.105 24.134 -349.507 23.217 -340.728 22.348 C-332.264 21.475 -323.988 20.088 -315.632 18.504 C-304.383 16.399 -293.49 15.686 -282.061 15.509 C-274.647 15.352 -268.01 14.585 -260.871 12.644 C-249.958 9.683 -238.687 9.258 -227.44 8.636 C-227.058 8.615 -227.058 8.615 -225.121 8.508 C-221.262 8.296 -217.403 8.096 -213.543 7.913 C-207.417 7.61 -201.361 7.298 -195.315 6.191 C-161.025 -0.078 -124.526 1.154 -89.804 0.578 C-88.558 0.557 -87.313 0.536 -86.03 0.514 C-57.354 0.038 -28.679 -0.026 0 0 Z " transform="translate(1056.0068919062614,881.8714306950569)"/>
<path d="M0 0 C1.142 -0.033 2.284 -0.066 3.461 -0.1 C11.443 -0.151 11.443 -0.151 15.586 2.465 C19.825 9.508 18.497 19.155 18.451 27.108 C18.446 28.496 18.442 29.884 18.439 31.272 C18.428 35.071 18.41 38.871 18.392 42.67 C18.373 46.773 18.36 50.876 18.347 54.979 C18.323 62.084 18.295 69.19 18.265 76.295 C18.222 86.576 18.185 96.857 18.15 107.138 C18.093 123.829 18.032 140.52 17.968 157.211 C17.964 158.21 17.961 159.208 17.957 160.237 C17.93 167.325 17.902 174.412 17.875 181.5 C17.844 189.598 17.813 197.696 17.782 205.794 C17.78 206.293 17.78 206.293 17.77 208.817 C17.707 225.448 17.647 242.078 17.591 258.709 C17.556 268.965 17.517 279.221 17.473 289.477 C17.444 296.502 17.418 303.527 17.395 310.552 C17.381 314.606 17.366 318.659 17.347 322.713 C17.329 326.424 17.315 330.135 17.306 333.847 C17.3 335.824 17.288 337.8 17.277 339.777 C17.267 345.438 17.335 350.865 18.375 356.438 C23.562 356.795 26.272 356.921 30.488 353.641 C33.098 351.977 35.844 351.057 38.75 350 C43.453 348.261 47.521 346.35 51.676 343.562 C54.126 341.94 56.727 340.704 59.375 339.438 C60.303 338.943 61.231 338.447 62.188 337.938 C64.696 336.757 66.934 335.925 69.562 335.125 C73.137 333.985 76.189 332.498 79.438 330.625 C85.279 327.314 91.338 325.095 97.629 322.816 C101.979 321.215 106.173 319.385 110.375 317.438 C114.126 315.763 117.843 314.257 121.75 313 C124.852 312.001 127.746 310.837 130.688 309.438 C134.184 307.823 137.558 306.85 141.312 306 C146.338 304.833 150.473 303.058 155.004 300.629 C157.996 299.125 161.042 298.17 164.234 297.188 C166.391 296.432 168.252 295.479 170.25 294.375 C174.291 292.242 178.239 291.691 182.719 290.996 C185.962 290.314 188.422 289.026 191.301 287.438 C193.685 286.288 195.998 285.651 198.562 285 C203.961 283.626 209.038 281.726 214.215 279.68 C216.941 278.608 219.676 277.602 222.438 276.625 C226.879 275.032 231.245 273.285 235.615 271.508 C243.175 268.436 250.654 265.635 258.5 263.363 C262.371 262.117 265.951 260.408 269.617 258.66 C273.518 256.931 277.541 255.698 281.605 254.414 C284.066 253.546 286.124 252.546 288.375 251.25 C291.716 249.448 294.47 249.173 298.25 249 C303.697 248.719 307.291 247.334 312.012 244.691 C314.291 243.482 316.405 242.722 318.875 242 C323.368 240.614 327.073 238.372 331.016 235.84 C333.375 234.438 333.375 234.438 336.035 233.582 C338.375 232.438 338.375 232.438 339.668 230.047 C339.963 229.103 340.258 228.16 340.562 227.188 C340.865 226.254 341.168 225.321 341.48 224.359 C341.776 223.395 342.071 222.431 342.375 221.438 C342.719 220.516 343.063 219.594 343.418 218.645 C347.278 205.708 346.516 191.157 346.465 177.785 C346.462 176.2 346.459 174.616 346.456 173.031 C346.388 145.384 346.03 117.737 345.727 90.092 C345.657 83.721 345.593 77.35 345.532 70.979 C345.508 68.584 345.483 66.189 345.454 63.793 C345.068 30.692 345.068 30.692 349.375 24.438 C351.375 22.438 351.375 22.438 354.07 22.172 C366.726 22.23 378.967 23.979 391.413 26.123 C398.828 27.384 406.268 28.468 413.71 29.551 C418.148 30.197 422.585 30.851 427.022 31.504 C430.408 32.002 433.795 32.498 437.183 32.989 C440.561 33.481 443.937 33.988 447.312 34.5 C448.281 34.638 449.249 34.776 450.246 34.918 C454.912 35.639 459.092 36.626 463.484 38.367 C470.977 41.245 478.796 42.257 486.688 43.5 C489.705 43.986 492.722 44.478 495.738 44.973 C496.471 45.092 497.204 45.211 497.959 45.334 C503.817 46.302 509.587 47.536 515.384 48.819 C519.038 49.575 522.598 49.982 526.312 50.312 C533.087 51.033 539.085 52.833 545.512 55.141 C549.649 56.588 553.854 57.595 558.125 58.562 C558.482 58.644 558.482 58.644 560.292 59.058 C561.676 59.373 563.06 59.688 564.445 60.001 C567.199 60.624 569.947 61.259 572.688 61.938 C573.509 62.133 574.33 62.329 575.176 62.531 C578.187 63.772 579.442 64.767 581.375 67.438 C583.429 74.461 583.805 81.694 584.027 88.965 C584.066 90.149 584.105 91.334 584.145 92.555 C584.668 112.201 584.228 131.867 583.981 151.515 C583.847 162.281 583.726 173.047 583.613 183.812 C583.6 185.029 583.588 186.246 583.574 187.5 C583.398 204.633 583.362 221.762 583.46 238.896 C583.48 242.398 583.497 245.9 583.513 249.402 C583.561 259.364 583.619 269.326 583.732 279.287 C583.773 283.339 583.794 287.39 583.81 291.442 C583.822 293.319 583.843 295.196 583.873 297.073 C583.914 299.624 583.924 302.172 583.927 304.723 C583.937 305.096 583.937 305.096 583.986 306.982 C583.97 309.045 583.97 309.045 583.375 312.438 C579.837 315.346 576.032 316.225 571.625 317.312 C570.285 317.653 568.945 317.996 567.605 318.34 C567.258 318.429 567.258 318.429 565.501 318.878 C559.081 320.567 552.731 322.523 546.375 324.438 C545.645 324.656 544.914 324.874 544.162 325.099 C542.002 325.747 539.844 326.403 537.688 327.062 C537.057 327.255 537.057 327.255 533.863 328.227 C530.375 329.438 530.375 329.438 527.441 330.941 C523.712 332.761 520.007 333.729 516 334.75 C508.472 336.752 501.247 339.206 493.992 342.031 C490.866 343.247 487.727 344.388 484.562 345.5 C481.118 346.743 477.813 348.127 474.5 349.688 C461.918 355.528 448.724 360.082 435.539 364.348 C432.041 365.552 428.76 367.032 425.418 368.605 C422.531 369.781 419.593 370.286 416.543 370.879 C414.319 371.452 412.627 372.263 410.625 373.375 C407.254 375.193 404.129 376.001 400.375 376.75 C391.175 378.703 382.913 382.781 374.477 386.828 C368.642 389.597 362.744 391.637 356.57 393.493 C346.633 396.515 337.146 400.567 327.738 404.949 C321.915 407.526 315.992 409.869 310.078 412.228 C302.91 415.116 302.91 415.116 299.52 417.152 C297.102 418.601 295.214 418.985 292.438 419.375 C287.87 420.182 285.214 421.798 281.375 424.438 C279.807 424.964 278.221 425.439 276.625 425.875 C272.075 427.125 268.138 428.918 263.992 431.156 C261.202 432.522 258.381 433.584 255.467 434.652 C252.136 435.903 248.882 437.319 245.625 438.75 C244.93 439.054 244.234 439.358 243.518 439.672 C239.383 441.498 235.333 443.433 231.312 445.5 C223.417 449.523 215.142 453.105 206.602 455.492 C203.375 456.438 203.375 456.438 200.562 458.312 C197.919 460.075 195.976 461.047 193.062 462.125 C187.33 464.297 182.047 467.195 176.704 470.177 C172.409 472.527 168.219 474.231 163.552 475.698 C160.14 476.858 157.004 478.465 153.812 480.125 C152.409 480.841 151.005 481.558 149.602 482.273 C148.897 482.635 148.192 482.997 147.466 483.37 C145.492 484.378 143.51 485.369 141.523 486.352 C135.672 489.247 129.847 492.173 124.086 495.246 C123.628 495.49 123.628 495.49 121.311 496.721 C119.536 497.668 117.764 498.621 115.995 499.581 C110.727 502.39 105.463 504.579 99.827 506.544 C96.933 507.599 94.298 508.91 91.625 510.438 C90.719 510.949 89.813 511.461 88.879 511.988 C88.466 512.227 88.466 512.227 86.375 513.438 C79.542 517.359 79.542 517.359 76.188 518.938 C73.375 520.438 73.375 520.438 71.535 522.406 C69.081 524.714 67.194 525.436 64 526.438 C59.592 527.93 56.17 529.702 52.375 532.438 C51.488 532.871 50.601 533.304 49.688 533.75 C45.654 535.805 41.94 538.239 38.156 540.719 C35.375 542.438 35.375 542.438 32.379 543.914 C22.813 548.765 14.014 555.644 9.375 565.438 C8.333 570.647 10.531 574.092 13.086 578.484 C16.545 586.408 16.699 594.925 16.789 603.445 C16.809 604.657 16.828 605.868 16.848 607.116 C16.899 610.533 16.94 613.95 16.976 617.367 C17 619.591 17.028 621.814 17.056 624.037 C17.477 657.96 17.49 691.887 17.5 725.812 C17.5 726.504 17.5 727.196 17.501 727.908 C17.509 757.446 17.483 786.984 17.078 816.52 C17.065 817.496 17.052 818.473 17.038 819.479 C16.915 828.407 16.779 837.335 16.602 846.263 C16.542 849.37 16.489 852.477 16.438 855.584 C16.4 857.653 16.351 859.721 16.301 861.789 C16.281 863.002 16.261 864.216 16.24 865.466 C16.229 865.986 16.229 865.986 16.172 868.622 C16.39 871.639 16.985 873.757 18.375 876.438 C20.598 877.293 20.598 877.293 23.438 877.625 C24.525 877.76 25.613 877.896 26.734 878.035 C27.936 878.168 29.137 878.301 30.375 878.438 C31.618 878.622 32.86 878.806 34.141 878.996 C42.58 880.215 50.911 880.618 59.438 880.625 C60.401 880.626 61.364 880.627 62.357 880.627 C66.981 880.591 71.432 880.354 76.017 879.703 C79.845 879.272 83.687 879.134 87.533 878.944 C101.78 878.237 115.612 877.045 129.66 874.441 C135.703 873.331 141.772 872.63 147.875 871.938 C157.326 870.837 166.214 868.991 175.375 866.438 C180.336 865.197 185.245 864.312 190.312 863.625 C196.613 862.696 202.593 861.092 208.698 859.329 C213.275 858.01 217.845 856.833 222.5 855.812 C226.578 854.902 230.365 853.817 234.23 852.246 C237.009 851.199 239.838 850.396 242.688 849.562 C247.95 847.97 252.826 846.003 257.785 843.641 C260.163 842.536 262.543 841.599 265 840.688 C270.602 838.508 275.778 835.59 281.047 832.72 C285.087 830.55 288.996 828.729 293.375 827.312 C302.754 824.177 310.068 817.185 314.5 808.438 C315.127 807.105 315.752 805.772 316.375 804.438 C316.9 803.538 317.424 802.638 317.965 801.711 C319.662 797.771 319.772 794.274 319.812 790.062 C320.049 782.321 321.336 775.429 323.438 767.988 C324.927 762.348 325.5 756.884 325.504 751.061 C325.508 749.813 325.511 748.566 325.514 747.281 C325.512 745.906 325.51 744.531 325.508 743.156 C325.509 741.677 325.51 740.198 325.512 738.719 C325.515 734.65 325.51 730.582 325.504 726.513 C325.5 723.927 325.498 721.341 325.496 718.755 C325.473 686.798 325.246 654.841 324.969 622.885 C324.938 619.294 324.908 615.703 324.878 612.111 C324.679 588.329 324.441 564.554 323.702 540.782 C323.503 534.357 323.32 527.945 323.398 521.517 C323.357 517.816 322.905 514.168 322.438 510.5 C322.35 509.759 322.263 509.019 322.174 508.256 C321.798 505.18 321.358 502.385 320.375 499.438 C320.07 497.006 319.828 494.567 319.625 492.125 C319.506 490.829 319.388 489.534 319.266 488.199 C319.405 483.412 320.567 480.203 324.023 476.828 C328.975 473.557 333.18 471.633 339.062 470.625 C343.866 469.727 347.653 467.952 351.941 465.664 C354.919 464.163 357.924 463.17 361.102 462.184 C363.542 461.383 365.88 460.428 368.25 459.438 C372.566 457.678 376.886 456.449 381.395 455.285 C384.768 454.326 388.021 453.15 391.312 451.938 C396.673 449.977 401.983 448.478 407.535 447.18 C410.293 446.459 412.849 445.541 415.5 444.5 C421.069 442.377 426.732 441.151 432.567 440.008 C437.744 438.951 442.523 437.338 447.465 435.481 C452.503 433.674 457.654 432.289 462.812 430.875 C463.855 430.584 464.897 430.294 465.971 429.994 C471.212 428.542 476.463 427.154 481.742 425.848 C488.037 424.29 494.199 422.411 500.375 420.438 C501.224 420.168 502.074 419.899 502.949 419.621 C506.308 418.532 509.434 417.409 512.625 415.875 C515.864 414.419 518.986 414.013 522.5 413.562 C528.495 412.746 533.536 410.967 539.105 408.664 C543.394 407.055 547.713 406.152 552.207 405.309 C554.868 404.577 556.799 403.778 559.211 402.516 C563.412 400.327 567.637 399.017 572.188 397.75 C580.329 395.401 588.354 392.792 596.375 390.062 C611.67 384.887 627.174 380.117 642.879 376.336 C645.804 375.584 648.374 374.715 651.125 373.5 C654.696 372.012 658.174 370.931 661.941 370.059 C668.273 368.516 674.399 366.544 680.562 364.438 C681.07 364.266 681.07 364.266 683.639 363.398 C685.624 362.728 687.608 362.056 689.592 361.381 C692.865 360.271 696.144 359.177 699.425 358.087 C701.431 357.419 703.434 356.741 705.438 356.062 C709.713 354.637 714.011 353.283 718.312 351.938 C719.014 351.718 719.716 351.498 720.44 351.272 C724.074 350.139 727.715 349.047 731.375 348 C736.511 346.482 741.482 344.55 746.477 342.629 C750.224 341.2 753.928 339.956 757.812 338.938 C763.219 337.392 769.495 334.581 772.477 329.595 C773.439 327.283 773.601 325.805 773.555 323.317 C773.546 322.472 773.537 321.627 773.528 320.757 C773.51 319.811 773.492 318.865 773.473 317.891 C773.452 315.704 773.434 313.517 773.418 311.33 C773.409 310.09 773.399 308.849 773.389 307.572 C773.347 299.459 773.468 291.346 773.559 283.234 C773.579 281.38 773.598 279.525 773.618 277.671 C773.67 272.838 773.725 268.006 773.779 263.174 C773.813 260.158 773.846 257.142 773.878 254.126 C774.142 229.834 774.484 205.55 775.074 181.264 C775.453 165.271 775.26 149.336 774.518 133.355 C774.503 132.964 774.503 132.964 774.425 130.986 C774.367 129.544 774.298 128.103 774.213 126.663 C774.103 123.665 774.243 121.691 775.639 119.008 C777.981 116.889 780.071 116.998 783.145 117.004 C785.375 117.438 785.375 117.438 787.945 118.906 C792.729 121.042 797.254 121.089 802.438 121.375 C809.981 121.906 816.585 122.79 823.73 125.363 C829.93 127.191 836.326 128.014 842.713 128.955 C847.244 129.645 851.498 130.377 855.805 131.969 C862.483 134.361 869.587 134.557 876.605 135.166 C883.11 135.812 888.56 137.074 894.628 139.477 C899.477 141.173 904.49 141.744 909.562 142.438 C918.587 143.78 927.254 145.466 936.067 147.838 C942.157 149.419 948.297 150.808 954.422 152.244 C960.07 153.585 965.624 155.08 971.172 156.788 C974.045 157.635 976.937 158.241 979.875 158.812 C985.598 160.005 991.236 161.397 996.875 162.938 C997.252 163.038 997.252 163.038 999.158 163.548 C1002.513 164.482 1005.428 165.464 1008.555 167.039 C1012.263 168.878 1015.716 169.172 1019.789 169.617 C1023.354 170.748 1024.368 172.311 1026.375 175.438 C1026.739 178.634 1026.739 178.634 1026.55 182.35 C1026.523 183.043 1026.495 183.736 1026.467 184.45 C1026.404 185.981 1026.333 187.512 1026.255 189.043 C1026.034 193.442 1025.893 197.845 1025.745 202.247 C1025.711 203.213 1025.677 204.179 1025.642 205.174 C1025.235 217.473 1025.256 229.772 1025.261 242.076 C1025.261 244.625 1025.261 247.174 1025.26 249.723 C1025.26 255.806 1025.265 261.89 1025.271 267.973 C1025.279 275.314 1025.28 282.654 1025.281 289.994 C1025.284 303.548 1025.29 317.101 1025.3 330.655 C1025.313 349.216 1025.319 367.776 1025.323 386.337 C1025.325 395.034 1025.327 403.73 1025.33 412.426 C1025.33 413.296 1025.33 414.167 1025.33 415.063 C1025.336 435.706 1025.345 456.35 1025.354 476.993 C1025.355 477.894 1025.355 478.795 1025.356 479.724 C1025.363 495.246 1025.37 510.767 1025.378 526.289 C1025.384 539.024 1025.39 551.758 1025.396 564.493 C1025.396 565.389 1025.396 566.286 1025.397 567.21 C1025.406 587.771 1025.415 608.331 1025.42 628.892 C1025.421 629.762 1025.421 630.631 1025.421 631.527 C1025.424 640.22 1025.426 648.912 1025.428 657.605 C1025.432 676.117 1025.439 694.628 1025.452 713.14 C1025.461 726.66 1025.467 740.181 1025.469 753.702 C1025.47 760.985 1025.473 768.268 1025.481 775.551 C1025.511 804.896 1025.4 834.235 1024.963 863.577 C1024.932 865.669 1024.902 867.761 1024.872 869.853 C1024.697 882.047 1024.521 894.239 1023.911 906.421 C1023.874 907.163 1023.838 907.905 1023.801 908.67 C1023.449 914.897 1022.341 920.532 1020.375 926.438 C1020.135 927.16 1019.895 927.882 1019.647 928.626 C1014.703 943.266 1008.631 954.76 998.375 966.438 C997.864 967.022 997.353 967.607 996.827 968.209 C986.417 980.017 975.287 989.764 961.777 997.902 C959.149 999.582 956.792 1001.469 954.375 1003.438 C947.818 1008.359 940.976 1011.451 933.375 1014.438 C931.039 1015.432 928.706 1016.432 926.375 1017.438 C917.435 1021.266 908.59 1024.824 899.234 1027.535 C896.574 1028.375 894.146 1029.376 891.625 1030.562 C888.04 1032.241 884.656 1033.129 880.781 1033.879 C878.103 1034.501 875.639 1035.416 873.062 1036.375 C866.714 1038.57 860.36 1039.455 853.735 1040.361 C849.068 1041.007 844.559 1041.778 840 1043 C827.568 1046.271 815.298 1046.757 802.5 1047.096 C796.41 1047.261 790.414 1047.54 784.366 1048.295 C781.497 1048.5 779.763 1048.03 777.375 1046.438 C774.567 1042.638 774.073 1040.399 774.688 1035.75 C775.411 1029.277 775.964 1022.908 774.868 1016.452 C774.16 1011.557 774.287 1006.686 774.35 1001.751 C774.36 1000.681 774.369 999.611 774.378 998.508 C774.4 996.16 774.423 993.811 774.449 991.463 C774.491 987.614 774.526 983.766 774.56 979.917 C774.603 974.998 774.648 970.079 774.695 965.16 C774.853 948.746 774.982 932.332 775.104 915.917 C775.11 915.089 775.116 914.26 775.123 913.407 C775.606 848.652 775.563 783.895 775.56 719.139 C775.56 703.912 775.57 688.684 775.583 673.457 C775.598 657.536 775.605 641.616 775.604 625.695 C775.604 616.866 775.606 608.036 775.617 599.207 C775.626 591.801 775.628 584.396 775.622 576.991 C775.618 573.228 775.618 569.466 775.627 565.704 C775.636 561.64 775.63 557.576 775.622 553.512 C775.625 552.915 775.625 552.915 775.638 549.897 C775.636 549.357 775.636 549.357 775.624 546.622 C775.624 545.686 775.624 544.75 775.625 543.787 C775.375 541.438 775.375 541.438 773.375 538.438 C766.3 539.595 760.17 542.099 753.622 544.902 C749.832 546.502 746.254 547.873 742.188 548.625 C738.375 549.438 738.375 549.438 735.566 551.363 C732.169 553.572 729.421 554.477 725.5 555.438 C724.857 555.6 724.213 555.762 723.55 555.93 C720.799 556.62 718.041 557.279 715.282 557.938 C707.049 559.907 699.15 562.017 691.375 565.438 C687.231 567.251 683.017 568.298 678.625 569.312 C673.274 570.594 668.401 572.088 663.438 574.504 C660.375 575.89 657.197 576.74 653.969 577.656 C651.261 578.472 648.644 579.435 646 580.438 C642.118 581.885 638.284 582.996 634.25 583.938 C629.773 585.002 625.857 586.434 621.711 588.402 C618.041 590.029 614.233 591.2 610.418 592.438 C605.695 593.99 601.04 595.721 596.375 597.438 C593.545 598.462 590.714 599.485 587.883 600.508 C586.21 601.128 584.554 601.795 582.918 602.508 C579.227 603.857 575.5 604.093 571.605 604.484 C566.936 605.862 563.469 607.589 560.375 611.438 C559.237 615.993 559.42 620.43 559.559 625.102 C559.571 626.458 559.58 627.814 559.586 629.17 C559.611 632.744 559.684 636.315 559.767 639.888 C559.841 643.451 559.866 647.014 559.896 650.578 C560.009 661.741 560.222 672.894 560.898 684.039 C561.865 700.388 561.571 716.816 561.562 733.188 C561.563 734.988 561.563 736.789 561.563 738.59 C561.552 778.797 561.552 778.797 560.5 798.875 C560.461 799.653 560.422 800.432 560.381 801.234 C559.851 811.288 558.494 820.4 555.152 829.926 C554.238 832.88 553.628 835.848 553 838.875 C551.835 844.13 550.132 848.502 547.566 853.219 C546.491 855.222 545.633 857.196 544.812 859.312 C543.375 862.438 543.375 862.438 541.375 864.312 C539.229 866.593 538.768 867.93 537.875 870.875 C536.662 874.859 535.187 877.304 532.375 880.438 C531.436 881.791 530.499 883.145 529.562 884.5 C527.113 887.804 524.838 889.477 521.129 891.352 C519.096 892.61 517.896 893.969 516.375 895.812 C512.847 900.078 508.924 903.803 504.875 907.562 C504.246 908.148 503.617 908.734 502.969 909.337 C501.115 911.05 499.25 912.748 497.375 914.438 C496.729 915.02 496.083 915.602 495.418 916.202 C494.795 916.752 494.173 917.301 493.531 917.867 C492.972 918.362 492.414 918.857 491.838 919.367 C490.375 920.438 490.375 920.438 488.375 920.438 C488.169 921.015 487.963 921.592 487.75 922.188 C485.863 925.275 483.421 926.526 480.375 928.438 C479.529 929.118 478.684 929.799 477.812 930.5 C475.375 932.437 475.375 932.437 472.875 933.875 C470.375 935.438 470.375 935.438 468.246 937.754 C464.77 941.003 461.178 942.852 456.938 944.938 C448.672 949.024 448.672 949.024 445.266 951.996 C442.177 954.604 439.195 956.243 435.562 958 C435.254 958.15 435.254 958.15 433.694 958.912 C430.43 960.494 427.142 962.001 423.812 963.438 C416.878 966.443 410.169 970.115 403.727 974.059 C401.654 975.274 399.759 976.15 397.5 976.938 C389.133 979.966 381.193 983.828 373.375 988.062 C369.936 989.638 366.49 990.625 362.84 991.594 C360.375 992.438 360.375 992.438 358.031 993.941 C353.688 996.388 348.94 996.714 344.066 997.496 C340.078 998.513 337.767 1000.162 334.375 1002.438 C331.754 1003.35 329.089 1003.931 326.375 1004.5 C322.457 1005.343 318.997 1006.117 315.414 1007.965 C310.934 1010.136 306.369 1010.573 301.477 1011.254 C297.226 1011.91 294.664 1012.717 291.375 1015.438 C287.028 1017.197 282.963 1017.797 278.312 1018.25 C273.207 1018.828 268.697 1019.893 263.938 1021.875 C258.049 1024.32 252.284 1025.564 246.023 1026.621 C240.377 1027.579 234.788 1028.804 229.188 1030 C222.765 1031.364 216.38 1032.661 209.875 1033.562 C206.493 1034.034 203.583 1034.616 200.438 1035.938 C191.907 1039.399 182.56 1039.473 173.485 1039.675 C164.607 1039.88 156.57 1040.32 148.062 1042.938 C136.446 1046.416 124.522 1046.06 112.509 1046.226 C112.124 1046.231 112.124 1046.231 110.176 1046.258 C109.412 1046.268 108.648 1046.278 107.861 1046.289 C101.478 1046.392 95.165 1046.861 88.812 1047.5 C78.923 1048.477 69.125 1048.589 59.191 1048.451 C58.114 1048.438 57.036 1048.424 55.926 1048.41 C54.974 1048.392 54.021 1048.374 53.04 1048.356 C50.366 1048.438 47.987 1048.882 45.375 1049.438 C43.871 1049.575 42.364 1049.68 40.855 1049.754 C40.006 1049.796 39.156 1049.838 38.28 1049.881 C37.832 1049.901 37.832 1049.901 35.562 1050 C34.633 1050.042 33.704 1050.083 32.747 1050.126 C11.705 1051.011 11.705 1051.011 1.587 1049.61 C-0.783 1049.425 -2.906 1049.598 -5.266 1049.875 C-39.414 1053.559 -74.583 1051.725 -108.812 1050.5 C-110.027 1050.457 -111.242 1050.413 -112.494 1050.368 C-123.167 1049.979 -133.837 1049.584 -144.496 1048.906 C-153.221 1048.354 -161.949 1048.124 -170.688 1047.936 C-172.59 1047.895 -174.492 1047.851 -176.394 1047.806 C-187.594 1047.538 -198.778 1047.406 -209.98 1047.551 C-210.971 1047.561 -211.962 1047.572 -212.983 1047.582 C-217.746 1047.633 -222.505 1047.707 -227.267 1047.826 C-228.981 1047.849 -230.696 1047.87 -232.41 1047.891 C-233.187 1047.92 -233.964 1047.949 -234.765 1047.978 C-238.416 1047.997 -240.169 1047.885 -242.823 1045.278 C-244.903 1041.999 -245.13 1040.284 -245.142 1036.433 C-245.155 1035.22 -245.168 1034.008 -245.182 1032.758 C-245.177 1031.415 -245.171 1030.072 -245.165 1028.729 C-245.174 1027.298 -245.183 1025.867 -245.195 1024.436 C-245.222 1020.5 -245.223 1016.564 -245.221 1012.628 C-245.223 1008.382 -245.247 1004.137 -245.269 999.892 C-245.309 991.535 -245.327 983.179 -245.338 974.823 C-245.352 964.905 -245.389 954.986 -245.427 945.068 C-245.502 925.139 -245.55 905.211 -245.588 885.282 C-245.592 883.164 -245.596 881.045 -245.6 878.927 C-245.602 877.884 -245.604 876.842 -245.606 875.767 C-245.627 864.835 -245.656 853.903 -245.685 842.97 C-245.815 793.766 -245.896 744.562 -245.954 695.358 C-245.972 680.393 -245.991 665.428 -246.011 650.463 C-246.014 648.266 -246.017 646.069 -246.02 643.871 C-246.024 640.556 -246.029 637.241 -246.033 633.925 C-246.074 603.455 -246.114 572.985 -246.15 542.514 C-246.151 541.385 -246.153 540.255 -246.154 539.092 C-246.165 529.934 -246.176 520.777 -246.187 511.62 C-246.229 475.615 -246.277 439.609 -246.328 403.604 C-246.386 362.682 -246.441 321.76 -246.491 280.839 C-246.496 276.475 -246.501 272.112 -246.507 267.748 C-246.508 266.674 -246.509 265.601 -246.511 264.495 C-246.53 248.433 -246.552 232.372 -246.576 216.311 C-246.603 198.114 -246.626 179.917 -246.644 161.72 C-246.654 152.474 -246.664 143.228 -246.68 133.982 C-246.787 70.324 -246.787 70.324 -246.248 43.165 C-246.232 42.267 -246.217 41.369 -246.201 40.444 C-246.157 37.995 -246.1 35.546 -246.038 33.097 C-246.026 32.41 -246.015 31.723 -246.003 31.016 C-245.844 25.858 -245.491 20.379 -241.792 16.53 C-239.336 15.292 -237.7 15.028 -234.958 14.961 C-234.497 14.946 -234.497 14.946 -232.163 14.87 C-231.168 14.851 -230.173 14.832 -229.148 14.812 C-228.109 14.779 -227.07 14.746 -225.999 14.712 C-222.666 14.607 -219.333 14.52 -216 14.438 C-191.137 13.805 -191.137 13.805 -179.533 11.61 C-168.714 9.617 -157.708 9.046 -146.75 8.25 C-145.567 8.161 -144.385 8.073 -143.166 7.982 C-129.635 6.975 -116.266 6.179 -102.697 6.51 C-89.868 6.687 -77.095 5.538 -64.312 4.562 C-63.164 4.475 -62.015 4.388 -60.832 4.297 C-49.989 3.464 -39.152 2.582 -28.322 1.598 C-18.871 0.745 -9.496 0.051 0 0 Z " transform="translate(1114.625,1097.5625)"/>
</g>
</svg>
